<svg version="1.0" xmlns="http://www.w3.org/2000/svg"
 width="2480.000000pt" height="3508.000000pt" viewBox="0 0 2480.000000 3508.000000"
 preserveAspectRatio="xMidYMid meet">
<metadata>
Created by potrace 1.16, written by Peter Selinger 2001-2019
</metadata>
<g transform="translate(0.000000,3508.000000) scale(10,10)"
fill="#FFFF00" stroke="none">
<path d="M12755 25605 c-5 -2 -91 -6 -190 -8 -368 -10 -953 -73 -1266 -136
-30 -6 -94 -18 -144 -26 -86 -15 -211 -42 -395 -86 -47 -11 -105 -25 -130 -31
-25 -5 -56 -13 -70 -18 -14 -4 -43 -13 -65 -19 -159 -43 -376 -108 -460 -137
-55 -19 -152 -52 -215 -73 -98 -33 -205 -74 -415 -158 -22 -9 -59 -25 -82 -35
-23 -10 -44 -18 -47 -18 -3 0 -42 -17 -88 -39 -46 -21 -112 -51 -148 -67 -224
-97 -780 -395 -1023 -550 -92 -58 -398 -260 -438 -289 -15 -11 -56 -40 -91
-64 -89 -62 -153 -110 -231 -172 -37 -30 -99 -79 -138 -109 -39 -30 -83 -65
-97 -77 -14 -13 -28 -23 -31 -23 -3 0 -28 -21 -56 -48 -27 -26 -106 -95 -175
-153 -127 -108 -547 -517 -681 -664 -157 -171 -354 -401 -454 -530 -34 -44
-120 -153 -138 -175 -72 -87 -457 -648 -457 -665 0 -3 -15 -27 -33 -53 -18
-26 -52 -81 -76 -122 -24 -41 -53 -91 -64 -110 -11 -19 -27 -46 -35 -60 -7
-14 -25 -43 -38 -65 -54 -92 -283 -539 -317 -620 -14 -33 -44 -100 -67 -150
-58 -124 -218 -526 -269 -675 -64 -186 -115 -340 -122 -365 -18 -68 -29 -107
-67 -240 -42 -148 -77 -288 -112 -445 -11 -52 -25 -113 -30 -135 -17 -73 -29
-139 -45 -230 -9 -49 -24 -140 -35 -202 -23 -132 -67 -477 -75 -583 -3 -41
-10 -131 -15 -200 -6 -69 -13 -166 -16 -215 -11 -146 -7 -899 5 -1042 6 -73
16 -193 21 -265 12 -149 63 -560 85 -683 8 -44 24 -132 35 -195 22 -127 30
-164 58 -290 84 -365 75 -327 122 -490 17 -58 40 -139 51 -180 26 -94 133
-417 192 -575 181 -483 410 -970 664 -1408 98 -170 120 -205 210 -344 21 -32
43 -66 48 -75 27 -46 100 -157 126 -193 16 -22 41 -56 54 -75 102 -148 164
-232 269 -365 30 -38 87 -110 125 -160 39 -49 89 -110 112 -135 23 -25 92
-104 154 -176 113 -131 499 -526 650 -665 299 -276 593 -514 925 -750 91 -65
179 -127 195 -139 48 -34 245 -160 250 -160 3 0 27 -15 53 -33 44 -31 77 -51
160 -98 17 -11 49 -29 70 -41 20 -12 48 -28 62 -36 14 -7 43 -25 65 -38 69
-41 104 -59 355 -186 135 -68 274 -137 310 -152 36 -16 92 -41 125 -56 100
-46 196 -87 270 -115 39 -14 79 -31 90 -36 59 -27 432 -160 500 -179 17 -4 55
-17 85 -28 30 -12 129 -41 220 -66 91 -26 194 -55 230 -66 36 -11 90 -24 120
-30 30 -6 71 -15 90 -20 89 -24 257 -61 380 -83 277 -52 381 -68 610 -97 270
-33 278 -34 630 -61 167 -12 885 -16 1040 -5 139 10 355 26 430 32 118 10 463
55 580 75 63 12 152 27 196 34 116 19 192 34 474 99 154 36 199 47 235 57 17
5 102 29 190 54 233 66 557 173 724 239 47 19 140 55 206 81 66 26 143 57 170
70 131 60 195 89 250 112 172 73 775 395 955 511 296 190 403 262 550 367 15
11 54 38 86 60 32 22 86 62 121 90 34 27 106 84 159 125 92 72 303 247 314
260 3 4 55 49 115 101 122 103 590 569 700 694 38 44 94 106 123 139 51 56 53
59 46 103 -5 32 0 66 16 122 22 79 22 79 61 85 48 8 106 58 130 111 15 35 18
89 23 405 4 201 9 439 11 530 2 91 7 352 11 580 9 586 9 599 29 645 12 27 16
57 13 96 -13 173 -190 237 -368 134 -14 -8 -41 -21 -60 -29 -30 -12 -177 -71
-235 -95 -11 -5 -33 -14 -50 -21 -16 -7 -91 -36 -165 -66 -74 -30 -144 -59
-155 -64 -18 -8 -172 -71 -460 -186 -60 -24 -119 -49 -130 -54 -11 -5 -92 -38
-180 -74 -88 -35 -216 -87 -284 -115 -69 -28 -126 -50 -127 -48 -4 4 -36 310
-59 567 -2 25 -11 115 -19 200 -9 85 -22 227 -31 315 -8 88 -22 230 -30 315
-15 155 -17 174 -30 325 -8 92 -25 138 -63 179 -36 38 -81 56 -143 56 -63 0
-106 -20 -153 -70 -19 -21 -123 -100 -232 -177 -108 -76 -208 -147 -224 -158
-15 -11 -60 -42 -100 -70 -40 -27 -85 -59 -100 -70 -15 -11 -60 -42 -100 -70
-40 -27 -87 -60 -104 -73 -17 -12 -47 -33 -66 -46 -19 -14 -64 -45 -100 -70
-36 -26 -84 -59 -107 -76 l-43 -29 -1 112 c0 62 -2 141 -4 177 -2 36 -6 196
-9 355 -3 160 -9 396 -12 525 l-6 235 26 39 c34 50 39 74 34 142 -6 66 -43
118 -108 152 -88 44 -155 26 -284 -76 -16 -13 -31 -21 -33 -18 -5 5 39 95 217
441 51 99 160 313 243 475 188 370 236 462 241 468 3 2 20 -22 38 -53 18 -31
43 -73 55 -93 12 -21 29 -50 37 -67 9 -16 26 -46 38 -66 13 -20 68 -114 123
-208 127 -218 115 -198 278 -481 77 -131 149 -250 162 -264 66 -71 203 -91
283 -41 36 23 57 49 92 117 16 32 50 96 75 143 115 217 140 264 170 320 18 33
55 104 84 158 28 53 74 141 102 195 29 53 72 135 97 182 24 47 57 108 72 135
15 28 53 100 85 160 68 129 126 239 185 350 23 44 65 123 93 175 27 52 53 99
58 104 8 8 86 -146 236 -464 46 -96 144 -301 238 -495 35 -71 81 -168 103
-215 48 -102 168 -352 208 -434 54 -110 144 -158 246 -131 57 14 108 59 131
113 9 21 31 87 50 147 68 216 139 441 157 495 16 49 138 430 161 505 5 17 25
77 43 135 19 58 58 179 86 270 29 91 62 197 75 235 13 39 46 144 75 235 29 91
62 197 75 235 13 39 51 158 85 265 34 107 65 206 70 220 5 14 12 42 16 63 4
22 13 41 23 44 25 9 315 121 526 203 72 28 137 53 145 55 8 2 49 19 90 38 71
32 103 59 150 128 12 16 29 23 66 26 l51 5 -47 162 c-64 218 -178 555 -230
681 -16 39 -50 124 -76 190 -26 66 -58 145 -72 175 -13 30 -33 75 -44 100 -94
216 -280 584 -423 833 -133 232 -121 211 -204 342 -113 178 -159 249 -181 280
-62 88 -218 305 -237 330 -111 147 -313 402 -351 442 -8 7 -57 64 -109 126
-101 119 -368 401 -492 521 -126 121 -134 128 -246 232 -120 111 -376 329
-464 397 -31 23 -90 69 -131 102 -41 34 -95 75 -120 94 -65 47 -209 149 -250
177 -19 13 -53 37 -75 53 -22 16 -80 55 -130 86 -49 31 -124 78 -165 105 -41
27 -124 77 -183 112 -60 35 -121 70 -135 79 -15 9 -44 26 -64 38 -21 11 -55
31 -75 43 -54 31 -525 268 -608 305 -145 65 -323 142 -415 177 -136 53 -171
67 -205 82 -16 7 -91 33 -165 58 -74 25 -180 61 -235 79 -55 19 -120 40 -145
47 -25 7 -56 16 -70 21 -34 11 -337 95 -375 103 -16 4 -46 11 -65 15 -65 15
-315 72 -360 81 -25 6 -97 19 -160 30 -63 11 -151 27 -195 35 -113 21 -543 74
-694 86 -69 5 -182 14 -251 19 -126 10 -747 22 -765 15z m860 -419 c196 -15
606 -63 775 -91 306 -51 371 -64 600 -119 58 -14 134 -32 170 -40 105 -23 503
-140 665 -196 325 -111 587 -217 915 -367 263 -121 758 -391 985 -538 111 -71
338 -223 375 -250 15 -11 53 -37 84 -59 132 -90 582 -446 621 -491 6 -6 59
-54 120 -106 113 -97 494 -471 606 -595 35 -38 82 -90 105 -115 63 -69 222
-257 294 -347 127 -160 205 -261 228 -294 13 -18 73 -104 135 -191 62 -86 139
-200 172 -252 33 -52 78 -123 100 -158 58 -89 250 -425 308 -537 114 -220 173
-341 242 -495 15 -33 37 -82 50 -110 13 -27 37 -84 53 -125 113 -283 137 -343
158 -405 13 -38 42 -124 64 -190 23 -66 45 -132 50 -146 9 -29 9 -29 -175
-101 -27 -10 -59 -23 -70 -27 -26 -11 -79 -32 -195 -76 -52 -21 -133 -52 -180
-70 -47 -18 -139 -54 -205 -80 -115 -44 -197 -77 -240 -94 -25 -10 -79 -32
-165 -64 -36 -14 -130 -51 -210 -82 -80 -31 -185 -72 -235 -92 -168 -65 -320
-124 -355 -138 -19 -8 -75 -29 -125 -49 -176 -68 -380 -147 -400 -155 -23 -10
-70 -28 -165 -65 -36 -13 -130 -50 -210 -81 -80 -31 -185 -72 -235 -92 -92
-35 -174 -67 -210 -82 -39 -16 -201 -79 -328 -127 -51 -19 -101 -39 -112 -44
-11 -5 -74 -30 -140 -55 -105 -41 -279 -108 -385 -150 -19 -8 -75 -29 -125
-49 -176 -68 -380 -147 -400 -155 -23 -10 -70 -28 -165 -65 -36 -13 -130 -50
-210 -81 -80 -31 -185 -72 -235 -92 -92 -35 -174 -67 -210 -82 -27 -12 -80
-32 -205 -80 -194 -74 -445 -172 -465 -181 -11 -4 -74 -29 -140 -55 -66 -25
-136 -53 -155 -60 -19 -8 -75 -29 -125 -49 -176 -68 -380 -147 -400 -155 -23
-10 -70 -28 -165 -65 -36 -13 -130 -50 -210 -81 -80 -31 -185 -73 -235 -92
-49 -19 -139 -54 -200 -78 -60 -24 -157 -61 -215 -84 -332 -128 -447 -173
-465 -181 -11 -4 -74 -29 -140 -55 -66 -25 -136 -53 -155 -60 -52 -20 -203
-79 -298 -115 -45 -17 -96 -43 -114 -58 -61 -51 -86 -154 -52 -210 18 -30 118
-108 168 -132 17 -8 45 -24 61 -35 38 -25 42 -28 204 -122 73 -43 148 -87 166
-98 18 -11 80 -47 136 -80 56 -33 119 -70 138 -81 52 -31 444 -262 695 -409
126 -74 244 -143 271 -160 18 -11 59 -35 90 -53 38 -22 55 -38 51 -47 -3 -8
-102 -182 -221 -387 -196 -338 -214 -374 -198 -385 9 -7 22 -13 29 -13 26 0
92 91 120 166 18 46 43 91 64 114 20 20 44 57 53 81 65 159 141 269 205 296
30 12 37 12 58 -2 29 -19 30 -38 3 -118 -23 -68 -163 -318 -213 -381 -35 -45
-43 -55 -108 -153 -30 -45 -47 -81 -47 -99 0 -16 1 -47 2 -69 1 -28 -10 -61
-36 -113 -56 -110 -344 -589 -395 -656 -24 -33 -48 -71 -52 -86 -15 -51 29
-81 62 -42 8 9 42 74 76 144 63 130 142 256 171 272 39 23 80 75 91 117 15 61
43 128 101 242 57 113 84 155 194 302 24 33 59 84 77 113 23 37 39 52 55 52
13 0 30 12 42 29 57 80 237 56 216 -28 -12 -49 -129 -243 -165 -273 -84 -70
-81 -67 -65 -98 14 -27 12 -33 -46 -147 -67 -131 -98 -183 -115 -198 -20 -18
-74 -105 -80 -130 -5 -20 -1 -27 19 -36 35 -16 51 -8 73 38 11 21 48 88 84
150 52 93 69 113 92 118 35 8 50 34 42 74 -5 24 4 47 46 121 72 126 88 143
136 144 41 2 43 4 80 93 29 72 95 94 162 53 58 -36 74 -73 69 -166 -4 -70 -10
-93 -50 -175 -25 -52 -80 -141 -123 -199 -110 -148 -136 -185 -184 -265 -38
-62 -43 -78 -45 -140 -4 -103 -36 -189 -147 -392 -35 -63 -60 -96 -82 -108
-41 -23 -81 -76 -162 -215 -36 -63 -74 -124 -84 -135 -9 -11 -61 -95 -114
-187 -53 -91 -119 -196 -146 -233 -27 -37 -52 -75 -55 -84 -9 -30 12 -70 40
-77 37 -9 59 15 95 105 46 114 106 225 272 508 95 162 140 213 187 213 45 0
70 28 81 90 13 67 78 208 177 381 31 55 52 80 74 89 26 11 41 34 95 149 70
146 87 171 116 171 24 0 58 -35 58 -60 0 -10 -21 -53 -46 -95 -44 -73 -45 -76
-30 -100 37 -56 72 -22 144 140 69 155 121 255 134 255 5 0 18 -5 29 -11 43
-22 79 17 79 88 0 43 45 130 73 139 40 13 89 6 110 -15 26 -26 26 -72 -2 -156
-40 -123 -39 -123 -369 -690 -80 -137 -156 -268 -168 -290 l-23 -40 21 -22
c12 -13 27 -23 33 -23 19 0 44 33 74 97 26 53 90 169 267 480 35 61 64 116 64
121 0 20 226 402 279 471 70 92 69 91 112 123 48 36 101 45 134 24 22 -15 25
-22 20 -54 -12 -67 -36 -132 -62 -163 -23 -26 -24 -33 -13 -59 16 -39 3 -78
-67 -203 -30 -54 -60 -108 -67 -120 -6 -12 -29 -49 -50 -81 -34 -53 -38 -68
-40 -126 -2 -56 -8 -76 -43 -140 -22 -41 -60 -111 -83 -155 -61 -114 -210
-378 -296 -527 -87 -151 -91 -172 -35 -183 27 -5 55 29 97 120 20 44 61 122
91 174 53 88 57 93 84 87 34 -7 59 14 60 52 2 86 18 143 60 213 21 37 43 78
49 91 5 12 14 30 19 38 5 8 25 51 46 95 63 135 71 148 115 171 55 30 64 45 77
131 10 62 16 77 45 103 26 25 39 30 63 25 83 -16 137 -142 115 -267 -13 -68
-70 -198 -102 -230 -24 -24 -88 -129 -88 -145 0 -6 9 -14 19 -18 24 -7 32 -59
16 -105 -7 -19 -36 -75 -64 -123 -28 -49 -51 -93 -51 -98 0 -5 -14 -31 -30
-57 -16 -27 -30 -52 -30 -56 0 -4 -29 -51 -64 -104 -35 -53 -83 -130 -106
-170 -39 -66 -73 -105 -102 -114 -6 -2 -14 -28 -19 -57 -5 -35 -26 -83 -64
-147 -30 -52 -55 -100 -55 -106 0 -15 -145 -274 -204 -363 -40 -62 -45 -75
-43 -120 2 -52 -8 -78 -95 -250 -116 -231 -415 -756 -543 -955 -64 -100 -77
-133 -66 -164 13 -33 24 -38 56 -26 21 8 38 35 82 128 31 64 184 339 341 610
234 406 288 493 303 489 28 -7 36 10 50 103 13 94 30 139 89 240 22 37 55 97
73 132 173 328 430 782 464 821 18 19 44 22 60 6 19 -19 30 -2 62 103 68 222
63 211 106 235 47 27 73 29 103 7 26 -18 28 -56 7 -94 -22 -38 -18 -65 9 -78
34 -15 48 -2 109 103 l53 90 53 0 c61 0 62 1 86 100 19 75 90 218 158 318 113
168 230 218 306 132 52 -60 50 -135 -10 -275 -15 -36 -39 -85 -53 -110 -29
-51 -33 -78 -11 -86 18 -7 20 -53 3 -103 -41 -129 -259 -511 -300 -529 -14 -6
-8 -45 9 -64 16 -18 15 -24 -35 -120 -51 -95 -52 -101 -37 -124 23 -35 42 -30
71 19 92 155 146 261 164 322 32 106 111 272 196 415 89 150 145 211 194 212
36 1 60 -21 60 -57 0 -24 -50 -131 -94 -200 -18 -27 -39 -70 -46 -94 -13 -40
-12 -44 4 -57 16 -11 22 -10 44 7 26 20 101 135 102 155 0 5 13 22 28 37 26
25 29 26 50 11 29 -20 29 -76 1 -129 -12 -22 -30 -55 -40 -74 -17 -31 -17 -37
-4 -58 27 -40 18 -75 -46 -179 -34 -54 -72 -110 -84 -124 -30 -33 -55 -84 -55
-110 0 -11 16 -44 35 -73 32 -49 34 -54 22 -87 -27 -73 -151 -306 -309 -577
-57 -99 -88 -163 -88 -182 0 -34 31 -62 60 -54 24 6 63 57 79 103 7 19 41 89
75 155 l61 120 40 0 c33 0 42 5 62 34 12 18 25 47 27 65 28 193 54 260 129
327 l51 46 6 111 c5 108 7 113 54 207 49 96 110 165 146 165 9 0 20 3 24 7 17
17 105 23 166 10 79 -15 106 -67 77 -147 -42 -112 -101 -214 -158 -269 -32
-32 -59 -64 -59 -71 0 -8 10 -24 21 -36 l22 -23 -100 -173 c-55 -95 -102 -183
-106 -196 -6 -26 22 -62 48 -62 15 0 75 74 75 92 0 5 20 44 43 86 24 42 75
133 112 202 38 69 108 190 155 270 47 80 110 188 140 240 62 109 162 263 193
298 52 56 77 82 80 82 5 0 229 -129 236 -135 5 -6 -59 -114 -85 -143 -70 -78
-84 -98 -84 -124 0 -15 5 -30 11 -34 20 -12 2 -99 -32 -161 -18 -32 -49 -82
-69 -111 -102 -155 -102 -153 -96 -207 8 -69 -21 -141 -92 -233 -70 -90 -91
-130 -99 -179 -10 -68 -161 -360 -262 -503 -54 -78 -120 -152 -194 -218 -82
-72 -104 -137 -56 -162 32 -17 22 -55 -41 -165 -33 -58 -65 -116 -70 -131 -15
-37 -184 -328 -231 -394 -51 -73 -53 -140 -3 -140 29 0 61 30 70 66 9 35 141
294 162 317 12 14 25 17 53 12 45 -8 59 10 59 76 0 80 90 262 180 366 92 106
108 133 146 246 64 185 176 399 231 440 16 13 28 15 45 8 14 -5 31 -5 40 0 26
15 59 107 64 178 2 36 6 79 9 96 12 57 100 218 152 276 56 63 73 105 78 199 4
71 33 160 52 160 7 0 24 -9 36 -20 30 -28 58 -22 82 19 32 54 81 101 105 101
36 0 125 -57 171 -108 80 -90 95 -167 54 -275 -25 -68 -157 -307 -254 -462
-74 -117 -95 -165 -84 -195 11 -32 55 -49 78 -30 19 16 70 102 151 255 93 177
193 348 221 377 14 14 36 29 49 32 36 9 101 -11 119 -37 32 -46 19 -94 -74
-252 -23 -38 -41 -78 -41 -87 0 -23 41 -49 71 -46 23 3 24 0 22 -45 -1 -37
-12 -68 -50 -135 -27 -48 -52 -95 -56 -105 -9 -25 -275 -486 -301 -522 -35
-48 -59 -112 -54 -140 5 -23 -4 -34 -73 -88 -43 -34 -93 -72 -111 -85 -18 -13
-71 -50 -118 -84 -84 -59 -248 -168 -385 -256 -38 -25 -81 -53 -95 -62 -25
-17 -327 -191 -430 -247 -77 -43 -476 -243 -483 -243 -6 0 -45 -18 -212 -95
-49 -22 -105 -45 -207 -86 -29 -11 -62 -24 -73 -28 -11 -5 -38 -15 -60 -24
-22 -8 -62 -24 -90 -35 -27 -11 -113 -41 -190 -67 -77 -25 -169 -57 -205 -69
-63 -22 -94 -32 -175 -54 -22 -7 -96 -28 -165 -48 -115 -33 -179 -49 -485
-120 -111 -25 -211 -44 -365 -69 -46 -8 -105 -19 -130 -24 -58 -14 -497 -67
-620 -76 -52 -4 -120 -9 -150 -12 -175 -15 -400 -20 -755 -17 -220 3 -416 6
-435 8 -19 3 -102 9 -185 15 -447 33 -1077 137 -1520 252 -78 21 -93 25 -165
47 -19 6 -78 23 -130 37 -156 43 -558 179 -695 236 -11 4 -42 17 -70 27 -108
42 -285 118 -383 164 -57 26 -106 48 -109 48 -13 0 -539 269 -568 290 -5 5
-27 17 -47 29 -21 12 -54 30 -73 41 -19 11 -52 30 -72 41 -73 42 -94 54 -185
113 -51 33 -117 75 -145 93 -463 292 -980 711 -1417 1147 -311 310 -571 601
-756 845 -14 18 -47 62 -75 96 -27 35 -75 98 -105 141 -30 42 -64 89 -75 104
-23 31 -200 298 -253 380 -19 30 -48 75 -64 99 -77 116 -271 467 -394 711 -51
101 -174 367 -174 375 0 2 -13 32 -29 67 -27 56 -45 101 -112 273 -11 28 -24
59 -28 70 -5 11 -14 34 -21 50 -7 17 -20 55 -31 85 -143 428 -144 432 -167
515 -7 22 -27 95 -46 161 -20 67 -45 164 -57 215 -23 102 -29 127 -54 234 -15
66 -65 323 -86 445 -25 149 -81 617 -95 799 -26 347 -26 1034 0 1326 3 33 10
116 15 185 12 142 61 511 90 675 11 61 27 151 36 200 16 90 27 138 91 405 49
202 135 503 189 662 25 73 59 174 76 223 29 84 43 121 119 310 63 156 75 187
147 345 103 229 249 518 363 715 13 22 30 51 38 65 7 14 25 43 38 65 13 22 30
51 36 65 7 14 20 36 29 50 108 165 189 291 189 295 0 4 32 51 85 125 11 16 47
66 79 112 86 121 191 261 269 358 147 184 210 261 236 287 15 16 68 75 117
133 88 103 461 483 621 632 96 89 381 332 467 398 32 25 95 74 140 110 70 56
206 156 360 264 136 95 166 116 171 116 5 0 187 115 235 149 81 57 443 257
670 371 190 96 218 109 420 198 248 110 717 288 875 332 17 4 125 36 240 69
259 75 254 74 395 106 63 14 151 35 195 45 75 18 180 38 320 60 33 6 78 15
100 20 50 13 549 76 670 85 50 3 115 9 145 12 257 24 997 24 1325 -1z m6835
-7097 c0 -6 -11 -43 -24 -82 -22 -64 -103 -317 -173 -542 -14 -44 -36 -111
-48 -150 -13 -38 -39 -119 -58 -180 -105 -333 -141 -447 -162 -510 -13 -38
-51 -158 -85 -265 -34 -107 -70 -220 -80 -250 l-17 -55 -60 125 c-33 69 -76
159 -96 200 -19 41 -64 136 -100 210 -35 74 -92 192 -125 261 -33 69 -87 182
-120 250 -33 68 -96 200 -141 292 -45 93 -79 172 -76 177 2 4 17 12 32 18 16
6 80 30 143 55 63 25 144 56 180 70 36 14 108 42 160 62 52 21 147 57 210 82
63 24 124 48 135 53 11 5 63 25 115 45 52 20 104 40 115 44 11 5 38 16 60 24
22 8 74 29 115 46 81 33 100 37 100 20z m-1890 -725 c0 -7 -98 -193 -230 -439
-31 -58 -103 -195 -185 -350 -58 -111 -111 -209 -170 -320 -18 -33 -55 -104
-84 -157 -28 -54 -73 -140 -100 -190 -27 -51 -74 -140 -104 -198 -30 -57 -59
-106 -65 -108 -6 -2 -20 14 -32 35 -11 21 -29 52 -39 68 -10 17 -29 49 -42 71
-13 23 -69 119 -124 213 -127 219 -116 200 -274 474 -74 127 -143 241 -153
253 -18 21 -18 21 44 47 35 14 110 44 168 66 243 93 446 172 465 181 11 5 63
25 115 45 52 20 104 40 115 44 24 10 70 28 190 75 271 104 386 149 435 170 60
26 70 29 70 20z m-2283 -1076 c-69 -134 -182 -355 -253 -493 -70 -137 -135
-265 -143 -282 -18 -40 -23 -41 -37 -5 -42 101 -86 210 -94 227 -5 11 -30 72
-56 135 -26 63 -66 162 -90 218 -49 115 -50 122 -29 122 8 0 29 7 47 15 18 8
74 30 123 49 151 57 379 146 400 155 21 9 61 24 160 62 33 13 64 27 70 31 32
27 13 -18 -98 -234z m-1077 -252 c0 -10 34 -96 80 -201 5 -11 29 -69 54 -130
24 -60 74 -182 111 -270 36 -88 86 -209 111 -270 105 -253 115 -275 158 -311
22 -19 55 -37 75 -40 20 -4 41 -9 48 -13 9 -5 -752 -545 -788 -559 -5 -2 -9
284 -9 635 0 595 -2 641 -19 678 -36 80 -141 143 -221 132 -22 -3 -70 -21
-108 -40 -215 -111 -447 -229 -667 -342 -137 -70 -304 -156 -370 -190 -66 -34
-192 -99 -281 -144 -89 -44 -172 -91 -186 -104 l-25 -23 -159 93 c-87 51 -168
98 -179 104 -11 5 -37 20 -57 32 l-38 23 78 31 c42 18 131 53 197 78 138 54
185 72 385 150 80 31 174 68 210 81 36 13 74 28 85 33 11 5 74 30 140 56 66
25 136 53 155 60 19 8 76 29 125 49 176 68 380 147 400 155 11 5 38 15 60 24
53 20 145 56 170 66 34 15 96 38 220 86 66 25 145 56 175 69 57 24 70 24 70 2z
m-558 -1463 c2 -329 3 -599 3 -600 -1 -3 -166 92 -290 167 -23 14 -102 60
-176 103 -74 43 -201 119 -284 168 -82 49 -159 94 -170 100 -11 5 -38 21 -60
34 -22 13 -57 34 -78 45 -22 12 -37 23 -35 24 3 3 201 106 538 278 102 53 264
136 360 186 96 50 178 91 182 91 4 1 9 -268 10 -596z m1372 -403 c3 -135 8
-362 11 -505 3 -143 8 -318 10 -388 l5 -129 -37 22 c-21 13 -54 32 -73 43 -19
11 -47 27 -62 36 -14 9 -73 43 -129 76 -56 33 -119 70 -138 81 -42 25 -270
160 -449 264 l-123 72 45 32 c25 17 75 51 111 76 36 25 92 63 123 86 31 22 95
67 142 99 174 120 248 172 385 267 126 87 170 117 171 115 1 -1 4 -112 8 -247z
m1590 -612 c3 -29 8 -80 11 -113 3 -33 12 -127 20 -210 8 -82 21 -222 30 -310
8 -88 22 -227 30 -310 8 -82 17 -181 20 -220 3 -38 10 -108 16 -154 5 -46 8
-85 7 -87 -2 -1 -59 31 -128 71 -69 41 -139 82 -157 92 -44 25 -228 133 -272
161 -20 12 -49 29 -66 37 -16 9 -79 45 -140 82 -60 36 -180 106 -265 156 -85
49 -161 95 -168 101 -10 9 15 31 115 101 70 50 154 109 187 133 84 59 217 152
296 206 19 14 64 45 100 70 36 26 94 67 130 92 36 24 99 69 140 99 41 29 78
54 81 54 4 1 9 -23 13 -51z m2310 -1113 c-1 -39 -5 -279 -9 -535 -4 -256 -9
-505 -10 -555 -2 -49 -4 -170 -4 -267 l-1 -178 -32 20 c-18 11 -43 20 -56 20
-23 0 -63 19 -134 62 -20 13 -83 50 -139 83 -56 33 -119 70 -138 81 -44 27
-278 164 -460 271 -73 43 -148 87 -167 98 -18 11 -94 56 -170 100 -75 44 -153
90 -173 102 -20 12 -67 40 -106 62 l-70 40 30 11 c17 6 39 14 50 19 32 14 71
29 215 87 74 30 144 58 155 63 24 10 39 17 215 88 74 30 185 75 245 99 61 24
119 49 130 54 19 9 121 50 430 174 77 31 147 61 155 66 35 22 45 8 44 -65z
m-497 -1865 c28 -18 63 -73 63 -99 0 -28 -88 -184 -136 -242 -19 -23 -37 -53
-40 -68 -8 -32 -70 -148 -85 -157 -14 -9 -59 -109 -59 -132 1 -16 1 -16 14 0
7 10 104 175 215 367 l202 349 40 -22 c21 -13 55 -41 74 -64 l35 -41 -97 -113
c-147 -171 -606 -625 -798 -788 -220 -188 -275 -233 -275 -227 0 9 260 457
291 503 19 28 35 41 51 41 13 1 28 1 35 2 18 2 60 82 65 126 7 50 61 184 134
329 66 130 77 148 128 199 55 55 96 66 143 37z"/>
<path d="M11561 22024 c-94 -34 -175 -106 -215 -193 -17 -37 -21 -65 -21 -146
0 -114 17 -160 86 -238 46 -53 81 -71 359 -187 66 -27 174 -74 262 -113 l78
-34 -26 -24 c-75 -70 -185 -250 -222 -365 -35 -106 -42 -138 -52 -234 -22
-214 38 -454 158 -628 20 -30 45 -66 54 -81 30 -45 148 -159 222 -214 211
-157 439 -245 717 -276 89 -10 294 -8 364 4 285 48 473 124 670 271 75 56 187
163 214 204 9 14 31 45 50 70 38 50 112 201 132 268 l12 42 63 0 c177 0 329
143 342 321 6 88 -12 157 -59 227 -44 67 -107 115 -183 142 -30 10 -65 25 -78
33 -12 8 -34 18 -48 22 -14 4 -53 20 -87 36 -34 16 -67 29 -74 29 -6 0 -26 8
-43 19 -17 10 -47 24 -66 30 -19 6 -57 22 -84 36 -27 14 -55 25 -61 25 -7 0
-39 13 -71 30 -32 16 -67 30 -76 30 -9 0 -19 4 -23 9 -3 5 -31 19 -63 31 -31
11 -73 29 -92 39 -19 10 -46 22 -60 26 -14 4 -53 20 -87 36 -34 16 -69 29 -77
29 -8 0 -17 4 -21 9 -3 5 -31 19 -63 31 -31 11 -75 29 -97 40 -85 40 -178 80
-188 80 -5 0 -33 11 -61 25 -28 13 -89 40 -136 60 -47 20 -111 47 -142 61 -32
13 -84 35 -115 48 -32 14 -96 41 -143 61 -47 20 -111 47 -142 61 -32 13 -84
35 -115 48 -32 14 -96 41 -143 61 -150 64 -193 82 -270 116 -91 40 -206 50
-279 23z"/>
</g>
</svg>
