<?xml version="1.0" standalone="no"?>
<!DOCTYPE svg PUBLIC "-//W3C//DTD SVG 20010904//EN" "http://www.w3.org/TR/2001/REC-SVG-20010904/DTD/svg10.dtd">
<!-- Created using Krita: https://krita.org -->
<svg xmlns="http://www.w3.org/2000/svg" 
    xmlns:xlink="http://www.w3.org/1999/xlink"
    xmlns:krita="http://krita.org/namespaces/svg/krita"
    xmlns:sodipodi="http://sodipodi.sourceforge.net/DTD/sodipodi-0.dtd"
    width="2480.04pt"
    height="3508.02pt"
    viewBox="0 0 2480.04 3508.02">
<defs/>
<g id="group0" transform="matrix(0.1 0 0 -0.1 0 3508)" fill="none">
  <path id="shape0" transform="translate(3607.55111391966, 6967.55111391966)" fill="#000000" stroke-opacity="0" stroke="#000000" stroke-width="0" stroke-linecap="square" stroke-linejoin="bevel" d="M9147.45 18637.4C9142.45 18635.4 9056.45 18631.4 8957.45 18629.4C8589.45 18619.4 8004.45 18556.4 7691.45 18493.4C7661.45 18487.4 7597.45 18475.4 7547.45 18467.4C7461.45 18452.4 7336.45 18425.4 7152.45 18381.4C7105.45 18370.4 7047.45 18356.4 7022.45 18350.4C6997.45 18345.4 6966.45 18337.4 6952.45 18332.4C6938.45 18328.4 6909.45 18319.4 6887.45 18313.4C6728.45 18270.4 6511.45 18205.4 6427.45 18176.4C6372.45 18157.4 6275.45 18124.4 6212.45 18103.4C6114.45 18070.4 6007.45 18029.4 5797.45 17945.4C5775.45 17936.4 5738.45 17920.4 5715.45 17910.4C5692.45 17900.4 5671.45 17892.4 5668.45 17892.4C5665.45 17892.4 5626.45 17875.4 5580.45 17853.4C5534.45 17832.4 5468.45 17802.4 5432.45 17786.4C5208.45 17689.4 4652.45 17391.4 4409.45 17236.4C4317.45 17178.4 4011.45 16976.4 3971.45 16947.4C3956.45 16936.4 3915.45 16907.4 3880.45 16883.4C3791.45 16821.4 3727.45 16773.4 3649.45 16711.4C3612.45 16681.4 3550.45 16632.4 3511.45 16602.4C3472.45 16572.4 3428.45 16537.4 3414.45 16525.4C3400.45 16512.4 3386.45 16502.4 3383.45 16502.4C3380.45 16502.4 3355.45 16481.4 3327.45 16454.4C3300.45 16428.4 3221.45 16359.4 3152.45 16301.4C3025.45 16193.4 2605.45 15784.4 2471.45 15637.4C2314.45 15466.4 2117.45 15236.4 2017.45 15107.4C1983.45 15063.4 1897.45 14954.4 1879.45 14932.4C1807.45 14845.4 1422.45 14284.4 1422.45 14267.4C1422.45 14264.4 1407.45 14240.4 1389.45 14214.4C1371.45 14188.4 1337.45 14133.4 1313.45 14092.4C1289.45 14051.4 1260.45 14001.4 1249.45 13982.4C1238.45 13963.4 1222.45 13936.4 1214.45 13922.4C1207.45 13908.4 1189.45 13879.4 1176.45 13857.4C1122.45 13765.4 893.449 13318.4 859.449 13237.4C845.449 13204.4 815.449 13137.4 792.449 13087.4C734.449 12963.4 574.449 12561.4 523.449 12412.4C459.449 12226.4 408.449 12072.4 401.449 12047.4C383.449 11979.4 372.449 11940.4 334.449 11807.4C292.449 11659.4 257.449 11519.4 222.449 11362.4C211.449 11310.4 197.449 11249.4 192.449 11227.4C175.449 11154.4 163.449 11088.4 147.449 10997.4C138.449 10948.4 123.449 10857.4 112.449 10795.4C89.4489 10663.4 45.4489 10318.4 37.4489 10212.4C34.4489 10171.4 27.4489 10081.4 22.4489 10012.4C16.4489 9943.45 9.44889 9846.45 6.44889 9797.45C-4.55111 9651.45 -0.551114 8898.45 11.4489 8755.45C17.4489 8682.45 27.4489 8562.45 32.4489 8490.45C44.4489 8341.45 95.4489 7930.45 117.449 7807.45C125.449 7763.45 141.449 7675.45 152.449 7612.45C174.449 7485.45 182.449 7448.45 210.449 7322.45C294.449 6957.45 285.449 6995.45 332.449 6832.45C349.449 6774.45 372.449 6693.45 383.449 6652.45C409.449 6558.45 516.449 6235.45 575.449 6077.45C756.449 5594.45 985.449 5107.45 1239.45 4669.45C1337.45 4499.45 1359.45 4464.45 1449.45 4325.45C1470.45 4293.45 1492.45 4259.45 1497.45 4250.45C1524.45 4204.45 1597.45 4093.45 1623.45 4057.45C1639.45 4035.45 1664.45 4001.45 1677.45 3982.45C1779.45 3834.45 1841.45 3750.45 1946.45 3617.45C1976.45 3579.45 2033.45 3507.45 2071.45 3457.45C2110.45 3408.45 2160.45 3347.45 2183.45 3322.45C2206.45 3297.45 2275.45 3218.45 2337.45 3146.45C2450.45 3015.45 2836.45 2620.45 2987.45 2481.45C3286.45 2205.45 3580.45 1967.45 3912.45 1731.45C4003.45 1666.45 4091.45 1604.45 4107.45 1592.45C4155.45 1558.45 4352.45 1432.45 4357.45 1432.45C4360.45 1432.45 4384.45 1417.45 4410.45 1399.45C4454.45 1368.45 4487.45 1348.45 4570.45 1301.45C4587.45 1290.45 4619.45 1272.45 4640.45 1260.45C4660.45 1248.45 4688.45 1232.45 4702.45 1224.45C4716.45 1217.45 4745.45 1199.45 4767.45 1186.45C4836.45 1145.45 4871.45 1127.45 5122.45 1000.45C5257.45 932.449 5396.45 863.449 5432.45 848.449C5468.45 832.449 5524.45 807.449 5557.45 792.449C5657.45 746.449 5753.45 705.449 5827.45 677.449C5866.45 663.449 5906.45 646.449 5917.45 641.449C5976.45 614.449 6349.45 481.449 6417.45 462.449C6434.45 458.449 6472.45 445.449 6502.45 434.449C6532.45 422.449 6631.45 393.449 6722.45 368.449C6813.45 342.449 6916.45 313.449 6952.45 302.449C6988.45 291.449 7042.45 278.449 7072.45 272.449C7102.45 266.449 7143.45 257.449 7162.45 252.449C7251.45 228.449 7419.45 191.449 7542.45 169.449C7819.45 117.449 7923.45 101.449 8152.45 72.4489C8422.45 39.4489 8430.45 38.4489 8782.45 11.4489C8949.45 -0.551114 9667.45 -4.55111 9822.45 6.44889C9961.45 16.4489 10177.4 32.4489 10252.4 38.4489C10370.4 48.4489 10715.4 93.4489 10832.4 113.449C10895.4 125.449 10984.4 140.449 11028.4 147.449C11144.4 166.449 11220.4 181.449 11502.4 246.449C11656.4 282.449 11701.4 293.449 11737.4 303.449C11754.4 308.449 11839.4 332.449 11927.4 357.449C12160.4 423.449 12484.4 530.449 12651.4 596.449C12698.4 615.449 12791.4 651.449 12857.4 677.449C12923.4 703.449 13000.4 734.449 13027.4 747.449C13158.4 807.449 13222.4 836.449 13277.4 859.449C13449.4 932.449 14052.4 1254.45 14232.4 1370.45C14528.4 1560.45 14635.4 1632.45 14782.4 1737.45C14797.4 1748.45 14836.4 1775.45 14868.4 1797.45C14900.4 1819.45 14954.4 1859.45 14989.4 1887.45C15023.4 1914.45 15095.4 1971.45 15148.4 2012.45C15240.4 2084.45 15451.4 2259.45 15462.4 2272.45C15465.4 2276.45 15517.4 2321.45 15577.4 2373.45C15699.4 2476.45 16167.4 2942.45 16277.4 3067.45C16315.4 3111.45 16371.4 3173.45 16400.4 3206.45C16451.4 3262.45 16453.4 3265.45 16446.4 3309.45C16441.4 3341.45 16446.4 3375.45 16462.4 3431.45C16484.4 3510.45 16484.4 3510.45 16523.4 3516.45C16571.4 3524.45 16629.4 3574.45 16653.4 3627.45C16668.4 3662.45 16671.4 3716.45 16676.4 4032.45C16680.4 4233.45 16685.4 4471.45 16687.4 4562.45C16689.4 4653.45 16694.4 4914.45 16698.4 5142.45C16707.4 5728.45 16707.4 5741.45 16727.4 5787.45C16739.4 5814.45 16743.4 5844.45 16740.4 5883.45C16727.4 6056.45 16550.4 6120.45 16372.4 6017.45C16358.4 6009.45 16331.4 5996.45 16312.4 5988.45C16282.4 5976.45 16135.4 5917.45 16077.4 5893.45C16066.4 5888.45 16044.4 5879.45 16027.4 5872.45C16011.4 5865.45 15936.4 5836.45 15862.4 5806.45C15788.4 5776.45 15718.4 5747.45 15707.4 5742.45C15689.4 5734.45 15535.4 5671.45 15247.4 5556.45C15187.4 5532.45 15128.4 5507.45 15117.4 5502.45C15106.4 5497.45 15025.4 5464.45 14937.4 5428.45C14849.4 5393.45 14721.4 5341.45 14653.4 5313.45C14584.4 5285.45 14527.4 5263.45 14526.4 5265.45C14522.4 5269.45 14490.4 5575.45 14467.4 5832.45C14465.4 5857.45 14456.4 5947.45 14448.4 6032.45C14439.4 6117.45 14426.4 6259.45 14417.4 6347.45C14409.4 6435.45 14395.4 6577.45 14387.4 6662.45C14372.4 6817.45 14370.4 6836.45 14357.4 6987.45C14349.4 7079.45 14332.4 7125.45 14294.4 7166.45C14258.4 7204.45 14213.4 7222.45 14151.4 7222.45C14088.4 7222.45 14045.4 7202.45 13998.4 7152.45C13979.4 7131.45 13875.4 7052.45 13766.4 6975.45C13658.4 6899.45 13558.4 6828.45 13542.4 6817.45C13527.4 6806.45 13482.4 6775.45 13442.4 6747.45C13402.4 6720.45 13357.4 6688.45 13342.4 6677.45C13327.4 6666.45 13282.4 6635.45 13242.4 6607.45C13202.4 6580.45 13155.4 6547.45 13138.4 6534.45C13121.4 6522.45 13091.4 6501.45 13072.4 6488.45C13053.4 6474.45 13008.4 6443.45 12972.4 6418.45C12936.4 6392.45 12888.4 6359.45 12865.4 6342.45L12822.4 6313.45L12821.4 6425.45C12821.4 6487.45 12819.4 6566.45 12817.4 6602.45C12815.4 6638.45 12811.4 6798.45 12808.4 6957.45C12805.4 7117.45 12799.4 7353.45 12796.4 7482.45L12790.4 7717.45L12816.4 7756.45C12850.4 7806.45 12855.4 7830.45 12850.4 7898.45C12844.4 7964.45 12807.4 8016.45 12742.4 8050.45C12654.4 8094.45 12587.4 8076.45 12458.4 7974.45C12442.4 7961.45 12427.4 7953.45 12425.4 7956.45C12420.4 7961.45 12464.4 8051.45 12642.4 8397.45C12693.4 8496.45 12802.4 8710.45 12885.4 8872.45C13073.4 9242.45 13121.4 9334.45 13126.4 9340.45C13129.4 9342.45 13146.4 9318.45 13164.4 9287.45C13182.4 9256.45 13207.4 9214.45 13219.4 9194.45C13231.4 9173.45 13248.4 9144.45 13256.4 9127.45C13265.4 9111.45 13282.4 9081.45 13294.4 9061.45C13307.4 9041.45 13362.4 8947.45 13417.4 8853.45C13544.4 8635.45 13532.4 8655.45 13695.4 8372.45C13772.4 8241.45 13844.4 8122.45 13857.4 8108.45C13923.4 8037.45 14060.4 8017.45 14140.4 8067.45C14176.4 8090.45 14197.4 8116.45 14232.4 8184.45C14248.4 8216.45 14282.4 8280.45 14307.4 8327.45C14422.4 8544.45 14447.4 8591.45 14477.4 8647.45C14495.4 8680.45 14532.4 8751.45 14561.4 8805.45C14589.4 8858.45 14635.4 8946.45 14663.4 9000.45C14692.4 9053.45 14735.4 9135.45 14760.4 9182.45C14784.4 9229.45 14817.4 9290.45 14832.4 9317.45C14847.4 9345.45 14885.4 9417.45 14917.4 9477.45C14985.4 9606.45 15043.4 9716.45 15102.4 9827.45C15125.4 9871.45 15167.4 9950.45 15195.4 10002.4C15222.4 10054.4 15248.4 10101.4 15253.4 10106.4C15261.4 10114.4 15339.4 9960.45 15489.4 9642.45C15535.4 9546.45 15633.4 9341.45 15727.4 9147.45C15762.4 9076.45 15808.4 8979.45 15830.4 8932.45C15878.4 8830.45 15998.4 8580.45 16038.4 8498.45C16092.4 8388.45 16182.4 8340.45 16284.4 8367.45C16341.4 8381.45 16392.4 8426.45 16415.4 8480.45C16424.4 8501.45 16446.4 8567.45 16465.4 8627.45C16533.4 8843.45 16604.4 9068.45 16622.4 9122.45C16638.4 9171.45 16760.4 9552.45 16783.4 9627.45C16788.4 9644.45 16808.4 9704.45 16826.4 9762.45C16845.4 9820.45 16884.4 9941.45 16912.4 10032.4C16941.4 10123.4 16974.4 10229.4 16987.4 10267.4C17000.4 10306.4 17033.4 10411.4 17062.4 10502.4C17091.4 10593.4 17124.4 10699.4 17137.4 10737.4C17150.4 10776.4 17188.4 10895.4 17222.4 11002.4C17256.4 11109.4 17287.4 11208.4 17292.4 11222.4C17297.4 11236.4 17304.4 11264.4 17308.4 11285.4C17312.4 11307.4 17321.4 11326.4 17331.4 11329.4C17356.4 11338.4 17646.4 11450.4 17857.4 11532.4C17929.4 11560.4 17994.4 11585.4 18002.4 11587.4C18010.4 11589.4 18051.4 11606.4 18092.4 11625.4C18163.4 11657.4 18195.4 11684.4 18242.4 11753.4C18254.4 11769.4 18271.4 11776.4 18308.4 11779.4L18359.4 11784.4L18312.4 11946.4C18248.4 12164.4 18134.4 12501.4 18082.4 12627.4C18066.4 12666.4 18032.4 12751.4 18006.4 12817.4C17980.4 12883.4 17948.4 12962.4 17934.4 12992.4C17921.4 13022.4 17901.4 13067.4 17890.4 13092.4C17796.4 13308.4 17610.4 13676.4 17467.4 13925.4C17334.4 14157.4 17346.4 14136.4 17263.4 14267.4C17150.4 14445.4 17104.4 14516.4 17082.4 14547.4C17020.4 14635.4 16864.4 14852.4 16845.4 14877.4C16734.4 15024.4 16532.4 15279.4 16494.4 15319.4C16486.4 15326.4 16437.4 15383.4 16385.4 15445.4C16284.4 15564.4 16017.4 15846.4 15893.4 15966.4C15767.4 16087.4 15759.4 16094.4 15647.4 16198.4C15527.4 16309.4 15271.4 16527.4 15183.4 16595.4C15152.4 16618.4 15093.4 16664.4 15052.4 16697.4C15011.4 16731.4 14957.4 16772.4 14932.4 16791.4C14867.4 16838.4 14723.4 16940.4 14682.4 16968.4C14663.4 16981.4 14629.4 17005.4 14607.4 17021.4C14585.4 17037.4 14527.4 17076.4 14477.4 17107.4C14428.4 17138.4 14353.4 17185.4 14312.4 17212.4C14271.4 17239.4 14188.4 17289.4 14129.4 17324.4C14069.4 17359.4 14008.4 17394.4 13994.4 17403.4C13979.4 17412.4 13950.4 17429.4 13930.4 17441.4C13909.4 17452.4 13875.4 17472.4 13855.4 17484.4C13801.4 17515.4 13330.4 17752.4 13247.4 17789.4C13102.4 17854.4 12924.4 17931.4 12832.4 17966.4C12696.4 18019.4 12661.4 18033.4 12627.4 18048.4C12611.4 18055.4 12536.4 18081.4 12462.4 18106.4C12388.4 18131.4 12282.4 18167.4 12227.4 18185.4C12172.4 18204.4 12107.4 18225.4 12082.4 18232.4C12057.4 18239.4 12026.4 18248.4 12012.4 18253.4C11978.4 18264.4 11675.4 18348.4 11637.4 18356.4C11621.4 18360.4 11591.4 18367.4 11572.4 18371.4C11507.4 18386.4 11257.4 18443.4 11212.4 18452.4C11187.4 18458.4 11115.4 18471.4 11052.4 18482.4C10989.4 18493.4 10901.4 18509.4 10857.4 18517.4C10744.4 18538.4 10314.4 18591.4 10163.4 18603.4C10094.4 18608.4 9981.45 18617.4 9912.45 18622.4C9786.45 18632.4 9165.45 18644.4 9147.45 18637.4ZM10007.4 18218.4C10203.4 18203.4 10613.4 18155.4 10782.4 18127.4C11088.4 18076.4 11153.4 18063.4 11382.4 18008.4C11440.4 17994.4 11516.4 17976.4 11552.4 17968.4C11657.4 17945.4 12055.4 17828.4 12217.4 17772.4C12542.4 17661.4 12804.4 17555.4 13132.4 17405.4C13395.4 17284.4 13890.4 17014.4 14117.4 16867.4C14228.4 16796.4 14455.4 16644.4 14492.4 16617.4C14507.4 16606.4 14545.4 16580.4 14576.4 16558.4C14708.4 16468.4 15158.4 16112.4 15197.4 16067.4C15203.4 16061.4 15256.4 16013.4 15317.4 15961.4C15430.4 15864.4 15811.4 15490.4 15923.4 15366.4C15958.4 15328.4 16005.4 15276.4 16028.4 15251.4C16091.4 15182.4 16250.4 14994.4 16322.4 14904.4C16449.4 14744.4 16527.4 14643.4 16550.4 14610.4C16563.4 14592.4 16623.4 14506.4 16685.4 14419.4C16747.4 14333.4 16824.4 14219.4 16857.4 14167.4C16890.4 14115.4 16935.4 14044.4 16957.4 14009.4C17015.4 13920.4 17207.4 13584.4 17265.4 13472.4C17379.4 13252.4 17438.4 13131.4 17507.4 12977.4C17522.4 12944.4 17544.4 12895.4 17557.4 12867.4C17570.4 12840.4 17594.4 12783.4 17610.4 12742.4C17723.4 12459.4 17747.4 12399.4 17768.4 12337.4C17781.4 12299.4 17810.4 12213.4 17832.4 12147.4C17855.4 12081.4 17877.4 12015.4 17882.4 12001.4C17891.4 11972.4 17891.4 11972.4 17707.4 11900.4C17680.4 11890.4 17648.4 11877.4 17637.4 11873.4C17611.4 11862.4 17558.4 11841.4 17442.4 11797.4C17390.4 11776.4 17309.4 11745.4 17262.4 11727.4C17215.4 11709.4 17123.4 11673.4 17057.4 11647.4C16942.4 11603.4 16860.4 11570.4 16817.4 11553.4C16792.4 11543.4 16738.4 11521.4 16652.4 11489.4C16616.4 11475.4 16522.4 11438.4 16442.4 11407.4C16362.4 11376.4 16257.4 11335.4 16207.4 11315.4C16039.4 11250.4 15887.4 11191.4 15852.4 11177.4C15833.4 11169.4 15777.4 11148.4 15727.4 11128.4C15551.4 11060.4 15347.4 10981.4 15327.4 10973.4C15304.4 10963.4 15257.4 10945.4 15162.4 10908.4C15126.4 10895.4 15032.4 10858.4 14952.4 10827.4C14872.4 10796.4 14767.4 10755.4 14717.4 10735.4C14625.4 10700.4 14543.4 10668.4 14507.4 10653.4C14468.4 10637.4 14306.4 10574.4 14179.4 10526.4C14128.4 10507.4 14078.4 10487.4 14067.4 10482.4C14056.4 10477.4 13993.4 10452.4 13927.4 10427.4C13822.4 10386.4 13648.4 10319.4 13542.4 10277.4C13523.4 10269.4 13467.4 10248.4 13417.4 10228.4C13241.4 10160.4 13037.4 10081.4 13017.4 10073.4C12994.4 10063.4 12947.4 10045.4 12852.4 10008.4C12816.4 9995.45 12722.4 9958.45 12642.4 9927.45C12562.4 9896.45 12457.4 9855.45 12407.4 9835.45C12315.4 9800.45 12233.4 9768.45 12197.4 9753.45C12170.4 9741.45 12117.4 9721.45 11992.4 9673.45C11798.4 9599.45 11547.4 9501.45 11527.4 9492.45C11516.4 9488.45 11453.4 9463.45 11387.4 9437.45C11321.4 9412.45 11251.4 9384.45 11232.4 9377.45C11213.4 9369.45 11157.4 9348.45 11107.4 9328.45C10931.4 9260.45 10727.4 9181.45 10707.4 9173.45C10684.4 9163.45 10637.4 9145.45 10542.4 9108.45C10506.4 9095.45 10412.4 9058.45 10332.4 9027.45C10252.4 8996.45 10147.4 8954.45 10097.4 8935.45C10048.4 8916.45 9958.45 8881.45 9897.45 8857.45C9837.45 8833.45 9740.45 8796.45 9682.45 8773.45C9350.45 8645.45 9235.45 8600.45 9217.45 8592.45C9206.45 8588.45 9143.45 8563.45 9077.45 8537.45C9011.45 8512.45 8941.45 8484.45 8922.45 8477.45C8870.45 8457.45 8719.45 8398.45 8624.45 8362.45C8579.45 8345.45 8528.45 8319.45 8510.45 8304.45C8449.45 8253.45 8424.45 8150.45 8458.45 8094.45C8476.45 8064.45 8576.45 7986.45 8626.45 7962.45C8643.45 7954.45 8671.45 7938.45 8687.45 7927.45C8725.45 7902.45 8729.45 7899.45 8891.45 7805.45C8964.45 7762.45 9039.45 7718.45 9057.45 7707.45C9075.45 7696.45 9137.45 7660.45 9193.45 7627.45C9249.45 7594.45 9312.45 7557.45 9331.45 7546.45C9383.45 7515.45 9775.45 7284.45 10026.4 7137.45C10152.4 7063.45 10270.4 6994.45 10297.4 6977.45C10315.4 6966.45 10356.4 6942.45 10387.4 6924.45C10425.4 6902.45 10442.4 6886.45 10438.4 6877.45C10435.4 6869.45 10336.4 6695.45 10217.4 6490.45C10021.4 6152.45 10003.4 6116.45 10019.4 6105.45C10028.4 6098.45 10041.4 6092.45 10048.4 6092.45C10074.4 6092.45 10140.4 6183.45 10168.4 6258.45C10186.4 6304.45 10211.4 6349.45 10232.4 6372.45C10252.4 6392.45 10276.4 6429.45 10285.4 6453.45C10350.4 6612.45 10426.4 6722.45 10490.4 6749.45C10520.4 6761.45 10527.4 6761.45 10548.4 6747.45C10577.4 6728.45 10578.4 6709.45 10551.4 6629.45C10528.4 6561.45 10388.4 6311.45 10338.4 6248.45C10303.4 6203.45 10295.4 6193.45 10230.4 6095.45C10200.4 6050.45 10183.4 6014.45 10183.4 5996.45C10183.4 5980.45 10184.4 5949.45 10185.4 5927.45C10186.4 5899.45 10175.4 5866.45 10149.4 5814.45C10093.4 5704.45 9805.45 5225.45 9754.45 5158.45C9730.45 5125.45 9706.45 5087.45 9702.45 5072.45C9687.45 5021.45 9731.45 4991.45 9764.45 5030.45C9772.45 5039.45 9806.45 5104.45 9840.45 5174.45C9903.45 5304.45 9982.45 5430.45 10011.4 5446.45C10050.4 5469.45 10091.4 5521.45 10102.4 5563.45C10117.4 5624.45 10145.4 5691.45 10203.4 5805.45C10260.4 5918.45 10287.4 5960.45 10397.4 6107.45C10421.4 6140.45 10456.4 6191.45 10474.4 6220.45C10497.4 6257.45 10513.4 6272.45 10529.4 6272.45C10542.4 6272.45 10559.4 6284.45 10571.4 6301.45C10628.4 6381.45 10808.4 6357.45 10787.4 6273.45C10775.4 6224.45 10658.4 6030.45 10622.4 6000.45C10538.4 5930.45 10541.4 5933.45 10557.4 5902.45C10571.4 5875.45 10569.4 5869.45 10511.4 5755.45C10444.4 5624.45 10413.4 5572.45 10396.4 5557.45C10376.4 5539.45 10322.4 5452.45 10316.4 5427.45C10311.4 5407.45 10315.4 5400.45 10335.4 5391.45C10370.4 5375.45 10386.4 5383.45 10408.4 5429.45C10419.4 5450.45 10456.4 5517.45 10492.4 5579.45C10544.4 5672.45 10561.4 5692.45 10584.4 5697.45C10619.4 5705.45 10634.4 5731.45 10626.4 5771.45C10621.4 5795.45 10630.4 5818.45 10672.4 5892.45C10744.4 6018.45 10760.4 6035.45 10808.4 6036.45C10849.4 6038.45 10851.4 6040.45 10888.4 6129.45C10917.4 6201.45 10983.4 6223.45 11050.4 6182.45C11108.4 6146.45 11124.4 6109.45 11119.4 6016.45C11115.4 5946.45 11109.4 5923.45 11069.4 5841.45C11044.4 5789.45 10989.4 5700.45 10946.4 5642.45C10836.4 5494.45 10810.4 5457.45 10762.4 5377.45C10724.4 5315.45 10719.4 5299.45 10717.4 5237.45C10713.4 5134.45 10681.4 5048.45 10570.4 4845.45C10535.4 4782.45 10510.4 4749.45 10488.4 4737.45C10447.4 4714.45 10407.4 4661.45 10326.4 4522.45C10290.4 4459.45 10252.4 4398.45 10242.4 4387.45C10233.4 4376.45 10181.4 4292.45 10128.4 4200.45C10075.4 4109.45 10009.4 4004.45 9982.45 3967.45C9955.45 3930.45 9930.45 3892.45 9927.45 3883.45C9918.45 3853.45 9939.45 3813.45 9967.45 3806.45C10004.4 3797.45 10026.4 3821.45 10062.4 3911.45C10108.4 4025.45 10168.4 4136.45 10334.4 4419.45C10429.4 4581.45 10474.4 4632.45 10521.4 4632.45C10566.4 4632.45 10591.4 4660.45 10602.4 4722.45C10615.4 4789.45 10680.4 4930.45 10779.4 5103.45C10810.4 5158.45 10831.4 5183.45 10853.4 5192.45C10879.4 5203.45 10894.4 5226.45 10948.4 5341.45C11018.4 5487.45 11035.4 5512.45 11064.4 5512.45C11088.4 5512.45 11122.4 5477.45 11122.4 5452.45C11122.4 5442.45 11101.4 5399.45 11076.4 5357.45C11032.4 5284.45 11031.4 5281.45 11046.4 5257.45C11083.4 5201.45 11118.4 5235.45 11190.4 5397.45C11259.4 5552.45 11311.4 5652.45 11324.4 5652.45C11329.4 5652.45 11342.4 5647.45 11353.4 5641.45C11396.4 5619.45 11432.4 5658.45 11432.4 5729.45C11432.4 5772.45 11477.4 5859.45 11505.4 5868.45C11545.4 5881.45 11594.4 5874.45 11615.4 5853.45C11641.4 5827.45 11641.4 5781.45 11613.4 5697.45C11573.4 5574.45 11574.4 5574.45 11244.4 5007.45C11164.4 4870.45 11088.4 4739.45 11076.4 4717.45L11053.4 4677.45L11074.4 4655.45C11086.4 4642.45 11101.4 4632.45 11107.4 4632.45C11126.4 4632.45 11151.4 4665.45 11181.4 4729.45C11207.4 4782.45 11271.4 4898.45 11448.4 5209.45C11483.4 5270.45 11512.4 5325.45 11512.4 5330.45C11512.4 5350.45 11738.4 5732.45 11791.4 5801.45C11861.4 5893.45 11860.4 5892.45 11903.4 5924.45C11951.4 5960.45 12004.4 5969.45 12037.4 5948.45C12059.4 5933.45 12062.4 5926.45 12057.4 5894.45C12045.4 5827.45 12021.4 5762.45 11995.4 5731.45C11972.4 5705.45 11971.4 5698.45 11982.4 5672.45C11998.4 5633.45 11985.4 5594.45 11915.4 5469.45C11885.4 5415.45 11855.4 5361.45 11848.4 5349.45C11842.4 5337.45 11819.4 5300.45 11798.4 5268.45C11764.4 5215.45 11760.4 5200.45 11758.4 5142.45C11756.4 5086.45 11750.4 5066.45 11715.4 5002.45C11693.4 4961.45 11655.4 4891.45 11632.4 4847.45C11571.4 4733.45 11422.4 4469.45 11336.4 4320.45C11249.4 4169.45 11245.4 4148.45 11301.4 4137.45C11328.4 4132.45 11356.4 4166.45 11398.4 4257.45C11418.4 4301.45 11459.4 4379.45 11489.4 4431.45C11542.4 4519.45 11546.4 4524.45 11573.4 4518.45C11607.4 4511.45 11632.4 4532.45 11633.4 4570.45C11635.4 4656.45 11651.4 4713.45 11693.4 4783.45C11714.4 4820.45 11736.4 4861.45 11742.4 4874.45C11747.4 4886.45 11756.4 4904.45 11761.4 4912.45C11766.4 4920.45 11786.4 4963.45 11807.4 5007.45C11870.4 5142.45 11878.4 5155.45 11922.4 5178.45C11977.4 5208.45 11986.4 5223.45 11999.4 5309.45C12009.4 5371.45 12015.4 5386.45 12044.4 5412.45C12070.4 5437.45 12083.4 5442.45 12107.4 5437.45C12190.4 5421.45 12244.4 5295.45 12222.4 5170.45C12209.4 5102.45 12152.4 4972.45 12120.4 4940.45C12096.4 4916.45 12032.4 4811.45 12032.4 4795.45C12032.4 4789.45 12041.4 4781.45 12051.4 4777.45C12075.4 4770.45 12083.4 4718.45 12067.4 4672.45C12060.4 4653.45 12031.4 4597.45 12003.4 4549.45C11975.4 4500.45 11952.4 4456.45 11952.4 4451.45C11952.4 4446.45 11938.4 4420.45 11922.4 4394.45C11906.4 4367.45 11892.4 4342.45 11892.4 4338.45C11892.4 4334.45 11863.4 4287.45 11828.4 4234.45C11793.4 4181.45 11745.4 4104.45 11722.4 4064.45C11683.4 3998.45 11649.4 3959.45 11620.4 3950.45C11614.4 3948.45 11606.4 3922.45 11601.4 3893.45C11596.4 3858.45 11575.4 3810.45 11537.4 3746.45C11507.4 3694.45 11482.4 3646.45 11482.4 3640.45C11482.4 3625.45 11337.4 3366.45 11278.4 3277.45C11238.4 3215.45 11233.4 3202.45 11235.4 3157.45C11237.4 3105.45 11227.4 3079.45 11140.4 2907.45C11024.4 2676.45 10725.4 2151.45 10597.4 1952.45C10533.4 1852.45 10520.4 1819.45 10531.4 1788.45C10544.4 1755.45 10555.4 1750.45 10587.4 1762.45C10608.4 1770.45 10625.4 1797.45 10669.4 1890.45C10700.4 1954.45 10853.4 2229.45 11010.4 2500.45C11244.4 2906.45 11298.4 2993.45 11313.4 2989.45C11341.4 2982.45 11349.4 2999.45 11363.4 3092.45C11376.4 3186.45 11393.4 3231.45 11452.4 3332.45C11474.4 3369.45 11507.4 3429.45 11525.4 3464.45C11698.4 3792.45 11955.4 4246.45 11989.4 4285.45C12007.4 4304.45 12033.4 4307.45 12049.4 4291.45C12068.4 4272.45 12079.4 4289.45 12111.4 4394.45C12179.4 4616.45 12174.4 4605.45 12217.4 4629.45C12264.4 4656.45 12290.4 4658.45 12320.4 4636.45C12346.4 4618.45 12348.4 4580.45 12327.4 4542.45C12305.4 4504.45 12309.4 4477.45 12336.4 4464.45C12370.4 4449.45 12384.4 4462.45 12445.4 4567.45L12498.4 4657.45L12551.4 4657.45C12612.4 4657.45 12613.4 4658.45 12637.4 4757.45C12656.4 4832.45 12727.4 4975.45 12795.4 5075.45C12908.4 5243.45 13025.4 5293.45 13101.4 5207.45C13153.4 5147.45 13151.4 5072.45 13091.4 4932.45C13076.4 4896.45 13052.4 4847.45 13038.4 4822.45C13009.4 4771.45 13005.4 4744.45 13027.4 4736.45C13045.4 4729.45 13047.4 4683.45 13030.4 4633.45C12989.4 4504.45 12771.4 4122.45 12730.4 4104.45C12716.4 4098.45 12722.4 4059.45 12739.4 4040.45C12755.4 4022.45 12754.4 4016.45 12704.4 3920.45C12653.4 3825.45 12652.4 3819.45 12667.4 3796.45C12690.4 3761.45 12709.4 3766.45 12738.4 3815.45C12830.4 3970.45 12884.4 4076.45 12902.4 4137.45C12934.4 4243.45 13013.4 4409.45 13098.4 4552.45C13187.4 4702.45 13243.4 4763.45 13292.4 4764.45C13328.4 4765.45 13352.4 4743.45 13352.4 4707.45C13352.4 4683.45 13302.4 4576.45 13258.4 4507.45C13240.4 4480.45 13219.4 4437.45 13212.4 4413.45C13199.4 4373.45 13200.4 4369.45 13216.4 4356.45C13232.4 4345.45 13238.4 4346.45 13260.4 4363.45C13286.4 4383.45 13361.4 4498.45 13362.4 4518.45C13362.4 4523.45 13375.4 4540.45 13390.4 4555.45C13416.4 4580.45 13419.4 4581.45 13440.4 4566.45C13469.4 4546.45 13469.4 4490.45 13441.4 4437.45C13429.4 4415.45 13411.4 4382.45 13401.4 4363.45C13384.4 4332.45 13384.4 4326.45 13397.4 4305.45C13424.4 4265.45 13415.4 4230.45 13351.4 4126.45C13317.4 4072.45 13279.4 4016.45 13267.4 4002.45C13237.4 3969.45 13212.4 3918.45 13212.4 3892.45C13212.4 3881.45 13228.4 3848.45 13247.4 3819.45C13279.4 3770.45 13281.4 3765.45 13269.4 3732.45C13242.4 3659.45 13118.4 3426.45 12960.4 3155.45C12903.4 3056.45 12872.4 2992.45 12872.4 2973.45C12872.4 2939.45 12903.4 2911.45 12932.4 2919.45C12956.4 2925.45 12995.4 2976.45 13011.4 3022.45C13018.4 3041.45 13052.4 3111.45 13086.4 3177.45L13147.4 3297.45L13187.4 3297.45C13220.4 3297.45 13229.4 3302.45 13249.4 3331.45C13261.4 3349.45 13274.4 3378.45 13276.4 3396.45C13304.4 3589.45 13330.4 3656.45 13405.4 3723.45L13456.4 3769.45L13462.4 3880.45C13467.4 3988.45 13469.4 3993.45 13516.4 4087.45C13565.4 4183.45 13626.4 4252.45 13662.4 4252.45C13671.4 4252.45 13682.4 4255.45 13686.4 4259.45C13703.4 4276.45 13791.4 4282.45 13852.4 4269.45C13931.4 4254.45 13958.4 4202.45 13929.4 4122.45C13887.4 4010.45 13828.4 3908.45 13771.4 3853.45C13739.4 3821.45 13712.4 3789.45 13712.4 3782.45C13712.4 3774.45 13722.4 3758.45 13733.4 3746.45L13755.4 3723.45L13655.4 3550.45C13600.4 3455.45 13553.4 3367.45 13549.4 3354.45C13543.4 3328.45 13571.4 3292.45 13597.4 3292.45C13612.4 3292.45 13672.4 3366.45 13672.4 3384.45C13672.4 3389.45 13692.4 3428.45 13715.4 3470.45C13739.4 3512.45 13790.4 3603.45 13827.4 3672.45C13865.4 3741.45 13935.4 3862.45 13982.4 3942.45C14029.4 4022.45 14092.4 4130.45 14122.4 4182.45C14184.4 4291.45 14284.4 4445.45 14315.4 4480.45C14367.4 4536.45 14392.4 4562.45 14395.4 4562.45C14400.4 4562.45 14624.4 4433.45 14631.4 4427.45C14636.4 4421.45 14572.4 4313.45 14546.4 4284.45C14476.4 4206.45 14462.4 4186.45 14462.4 4160.45C14462.4 4145.45 14467.4 4130.45 14473.4 4126.45C14493.4 4114.45 14475.4 4027.45 14441.4 3965.45C14423.4 3933.45 14392.4 3883.45 14372.4 3854.45C14270.4 3699.45 14270.4 3701.45 14276.4 3647.45C14284.4 3578.45 14255.4 3506.45 14184.4 3414.45C14114.4 3324.45 14093.4 3284.45 14085.4 3235.45C14075.4 3167.45 13924.4 2875.45 13823.4 2732.45C13769.4 2654.45 13703.4 2580.45 13629.4 2514.45C13547.4 2442.45 13525.4 2377.45 13573.4 2352.45C13605.4 2335.45 13595.4 2297.45 13532.4 2187.45C13499.4 2129.45 13467.4 2071.45 13462.4 2056.45C13447.4 2019.45 13278.4 1728.45 13231.4 1662.45C13180.4 1589.45 13178.4 1522.45 13228.4 1522.45C13257.4 1522.45 13289.4 1552.45 13298.4 1588.45C13307.4 1623.45 13439.4 1882.45 13460.4 1905.45C13472.4 1919.45 13485.4 1922.45 13513.4 1917.45C13558.4 1909.45 13572.4 1927.45 13572.4 1993.45C13572.4 2073.45 13662.4 2255.45 13752.4 2359.45C13844.4 2465.45 13860.4 2492.45 13898.4 2605.45C13962.4 2790.45 14074.4 3004.45 14129.4 3045.45C14145.4 3058.45 14157.4 3060.45 14174.4 3053.45C14188.4 3048.45 14205.4 3048.45 14214.4 3053.45C14240.4 3068.45 14273.4 3160.45 14278.4 3231.45C14280.4 3267.45 14284.4 3310.45 14287.4 3327.45C14299.4 3384.45 14387.4 3545.45 14439.4 3603.45C14495.4 3666.45 14512.4 3708.45 14517.4 3802.45C14521.4 3873.45 14550.4 3962.45 14569.4 3962.45C14576.4 3962.45 14593.4 3953.45 14605.4 3942.45C14635.4 3914.45 14663.4 3920.45 14687.4 3961.45C14719.4 4015.45 14768.4 4062.45 14792.4 4062.45C14828.4 4062.45 14917.4 4005.45 14963.4 3954.45C15043.4 3864.45 15058.4 3787.45 15017.4 3679.45C14992.4 3611.45 14860.4 3372.45 14763.4 3217.45C14689.4 3100.45 14668.4 3052.45 14679.4 3022.45C14690.4 2990.45 14734.4 2973.45 14757.4 2992.45C14776.4 3008.45 14827.4 3094.45 14908.4 3247.45C15001.4 3424.45 15101.4 3595.45 15129.4 3624.45C15143.4 3638.45 15165.4 3653.45 15178.4 3656.45C15214.4 3665.45 15279.4 3645.45 15297.4 3619.45C15329.4 3573.45 15316.4 3525.45 15223.4 3367.45C15200.4 3329.45 15182.4 3289.45 15182.4 3280.45C15182.4 3257.45 15223.4 3231.45 15253.4 3234.45C15276.4 3237.45 15277.4 3234.45 15275.4 3189.45C15274.4 3152.45 15263.4 3121.45 15225.4 3054.45C15198.4 3006.45 15173.4 2959.45 15169.4 2949.45C15160.4 2924.45 14894.4 2463.45 14868.4 2427.45C14833.4 2379.45 14809.4 2315.45 14814.4 2287.45C14819.4 2264.45 14810.4 2253.45 14741.4 2199.45C14698.4 2165.45 14648.4 2127.45 14630.4 2114.45C14612.4 2101.45 14559.4 2064.45 14512.4 2030.45C14428.4 1971.45 14264.4 1862.45 14127.4 1774.45C14089.4 1749.45 14046.4 1721.45 14032.4 1712.45C14007.4 1695.45 13705.4 1521.45 13602.4 1465.45C13525.4 1422.45 13126.4 1222.45 13119.4 1222.45C13113.4 1222.45 13074.4 1204.45 12907.4 1127.45C12858.4 1105.45 12802.4 1082.45 12700.4 1041.45C12671.4 1030.45 12638.4 1017.45 12627.4 1013.45C12616.4 1008.45 12589.4 998.449 12567.4 989.449C12545.4 981.449 12505.4 965.449 12477.4 954.449C12450.4 943.449 12364.4 913.449 12287.4 887.449C12210.4 862.449 12118.4 830.449 12082.4 818.449C12019.4 796.449 11988.4 786.449 11907.4 764.449C11885.4 757.449 11811.4 736.449 11742.4 716.449C11627.4 683.449 11563.4 667.449 11257.4 596.449C11146.4 571.449 11046.4 552.449 10892.4 527.449C10846.4 519.449 10787.4 508.449 10762.4 503.449C10704.4 489.449 10265.4 436.449 10142.4 427.449C10090.4 423.449 10022.4 418.449 9992.45 415.449C9817.45 400.449 9592.45 395.449 9237.45 398.449C9017.45 401.449 8821.45 404.449 8802.45 406.449C8783.45 409.449 8700.45 415.449 8617.45 421.449C8170.45 454.449 7540.45 558.449 7097.45 673.449C7019.45 694.449 7004.45 698.449 6932.45 720.449C6913.45 726.449 6854.45 743.449 6802.45 757.449C6646.45 800.449 6244.45 936.449 6107.45 993.449C6096.45 997.449 6065.45 1010.45 6037.45 1020.45C5929.45 1062.45 5752.45 1138.45 5654.45 1184.45C5597.45 1210.45 5548.45 1232.45 5545.45 1232.45C5532.45 1232.45 5006.45 1501.45 4977.45 1522.45C4972.45 1527.45 4950.45 1539.45 4930.45 1551.45C4909.45 1563.45 4876.45 1581.45 4857.45 1592.45C4838.45 1603.45 4805.45 1622.45 4785.45 1633.45C4712.45 1675.45 4691.45 1687.45 4600.45 1746.45C4549.45 1779.45 4483.45 1821.45 4455.45 1839.45C3992.45 2131.45 3475.45 2550.45 3038.45 2986.45C2727.45 3296.45 2467.45 3587.45 2282.45 3831.45C2268.45 3849.45 2235.45 3893.45 2207.45 3927.45C2180.45 3962.45 2132.45 4025.45 2102.45 4068.45C2072.45 4110.45 2038.45 4157.45 2027.45 4172.45C2004.45 4203.45 1827.45 4470.45 1774.45 4552.45C1755.45 4582.45 1726.45 4627.45 1710.45 4651.45C1633.45 4767.45 1439.45 5118.45 1316.45 5362.45C1265.45 5463.45 1142.45 5729.45 1142.45 5737.45C1142.45 5739.45 1129.45 5769.45 1113.45 5804.45C1086.45 5860.45 1068.45 5905.45 1001.45 6077.45C990.449 6105.45 977.449 6136.45 973.449 6147.45C968.449 6158.45 959.449 6181.45 952.449 6197.45C945.449 6214.45 932.449 6252.45 921.449 6282.45C778.449 6710.45 777.449 6714.45 754.449 6797.45C747.449 6819.45 727.449 6892.45 708.449 6958.45C688.449 7025.45 663.449 7122.45 651.449 7173.45C628.449 7275.45 622.449 7300.45 597.449 7407.45C582.449 7473.45 532.449 7730.45 511.449 7852.45C486.449 8001.45 430.449 8469.45 416.449 8651.45C390.449 8998.45 390.449 9685.45 416.449 9977.45C419.449 10010.4 426.449 10093.4 431.449 10162.4C443.449 10304.4 492.449 10673.4 521.449 10837.4C532.449 10898.4 548.449 10988.4 557.449 11037.4C573.449 11127.4 584.449 11175.4 648.449 11442.4C697.449 11644.4 783.449 11945.4 837.449 12104.4C862.449 12177.4 896.449 12278.4 913.449 12327.4C942.449 12411.4 956.449 12448.4 1032.45 12637.4C1095.45 12793.4 1107.45 12824.4 1179.45 12982.4C1282.45 13211.4 1428.45 13500.4 1542.45 13697.4C1555.45 13719.4 1572.45 13748.4 1580.45 13762.4C1587.45 13776.4 1605.45 13805.4 1618.45 13827.4C1631.45 13849.4 1648.45 13878.4 1654.45 13892.4C1661.45 13906.4 1674.45 13928.4 1683.45 13942.4C1791.45 14107.4 1872.45 14233.4 1872.45 14237.4C1872.45 14241.4 1904.45 14288.4 1957.45 14362.4C1968.45 14378.4 2004.45 14428.4 2036.45 14474.4C2122.45 14595.4 2227.45 14735.4 2305.45 14832.4C2452.45 15016.4 2515.45 15093.4 2541.45 15119.4C2556.45 15135.4 2609.45 15194.4 2658.45 15252.4C2746.45 15355.4 3119.45 15735.4 3279.45 15884.4C3375.45 15973.4 3660.45 16216.4 3746.45 16282.4C3778.45 16307.4 3841.45 16356.4 3886.45 16392.4C3956.45 16448.4 4092.45 16548.4 4246.45 16656.4C4382.45 16751.4 4412.45 16772.4 4417.45 16772.4C4422.45 16772.4 4604.45 16887.4 4652.45 16921.4C4733.45 16978.4 5095.45 17178.4 5322.45 17292.4C5512.45 17388.4 5540.45 17401.4 5742.45 17490.4C5990.45 17600.4 6459.45 17778.4 6617.45 17822.4C6634.45 17826.4 6742.45 17858.4 6857.45 17891.4C7116.45 17966.4 7111.45 17965.4 7252.45 17997.4C7315.45 18011.4 7403.45 18032.4 7447.45 18042.4C7522.45 18060.4 7627.45 18080.4 7767.45 18102.4C7800.45 18108.4 7845.45 18117.4 7867.45 18122.4C7917.45 18135.4 8416.45 18198.4 8537.45 18207.4C8587.45 18210.4 8652.45 18216.4 8682.45 18219.4C8939.45 18243.4 9679.45 18243.4 10007.4 18218.4ZM16842.4 11121.4C16842.4 11115.4 16831.4 11078.4 16818.4 11039.4C16796.4 10975.4 16715.4 10722.4 16645.4 10497.4C16631.4 10453.4 16609.4 10386.4 16597.4 10347.4C16584.4 10309.4 16558.4 10228.4 16539.4 10167.4C16434.4 9834.45 16398.4 9720.45 16377.4 9657.45C16364.4 9619.45 16326.4 9499.45 16292.4 9392.45C16258.4 9285.45 16222.4 9172.45 16212.4 9142.45L16195.4 9087.45L16135.4 9212.45C16102.4 9281.45 16059.4 9371.45 16039.4 9412.45C16020.4 9453.45 15975.4 9548.45 15939.4 9622.45C15904.4 9696.45 15847.4 9814.45 15814.4 9883.45C15781.4 9952.45 15727.4 10065.4 15694.4 10133.4C15661.4 10201.4 15598.4 10333.4 15553.4 10425.4C15508.4 10518.4 15474.4 10597.4 15477.4 10602.4C15479.4 10606.4 15494.4 10614.4 15509.4 10620.4C15525.4 10626.4 15589.4 10650.4 15652.4 10675.4C15715.4 10700.4 15796.4 10731.4 15832.4 10745.4C15868.4 10759.4 15940.4 10787.4 15992.4 10807.4C16044.4 10828.4 16139.4 10864.4 16202.4 10889.4C16265.4 10913.4 16326.4 10937.4 16337.4 10942.4C16348.4 10947.4 16400.4 10967.4 16452.4 10987.4C16504.4 11007.4 16556.4 11027.4 16567.4 11031.4C16578.4 11036.4 16605.4 11047.4 16627.4 11055.4C16649.4 11063.4 16701.4 11084.4 16742.4 11101.4C16823.4 11134.4 16842.4 11138.4 16842.4 11121.4ZM14952.4 10396.4C14952.4 10389.4 14854.4 10203.4 14722.4 9957.45C14691.4 9899.45 14619.4 9762.45 14537.4 9607.45C14479.4 9496.45 14426.4 9398.45 14367.4 9287.45C14349.4 9254.45 14312.4 9183.45 14283.4 9130.45C14255.4 9076.45 14210.4 8990.45 14183.4 8940.45C14156.4 8889.45 14109.4 8800.45 14079.4 8742.45C14049.4 8685.45 14020.4 8636.45 14014.4 8634.45C14008.4 8632.45 13994.4 8648.45 13982.4 8669.45C13971.4 8690.45 13953.4 8721.45 13943.4 8737.45C13933.4 8754.45 13914.4 8786.45 13901.4 8808.45C13888.4 8831.45 13832.4 8927.45 13777.4 9021.45C13650.4 9240.45 13661.4 9221.45 13503.4 9495.45C13429.4 9622.45 13360.4 9736.45 13350.4 9748.45C13332.4 9769.45 13332.4 9769.45 13394.4 9795.45C13429.4 9809.45 13504.4 9839.45 13562.4 9861.45C13805.4 9954.45 14008.4 10033.4 14027.4 10042.4C14038.4 10047.4 14090.4 10067.4 14142.4 10087.4C14194.4 10107.4 14246.4 10127.4 14257.4 10131.4C14281.4 10141.4 14327.4 10159.4 14447.4 10206.4C14718.4 10310.4 14833.4 10355.4 14882.4 10376.4C14942.4 10402.4 14952.4 10405.4 14952.4 10396.4ZM12669.4 9320.45C12600.4 9186.45 12487.4 8965.45 12416.4 8827.45C12346.4 8690.45 12281.4 8562.45 12273.4 8545.45C12255.4 8505.45 12250.4 8504.45 12236.4 8540.45C12194.4 8641.45 12150.4 8750.45 12142.4 8767.45C12137.4 8778.45 12112.4 8839.45 12086.4 8902.45C12060.4 8965.45 12020.4 9064.45 11996.4 9120.45C11947.4 9235.45 11946.4 9242.45 11967.4 9242.45C11975.4 9242.45 11996.4 9249.45 12014.4 9257.45C12032.4 9265.45 12088.4 9287.45 12137.4 9306.45C12288.4 9363.45 12516.4 9452.45 12537.4 9461.45C12558.4 9470.45 12598.4 9485.45 12697.4 9523.45C12730.4 9536.45 12761.4 9550.45 12767.4 9554.45C12799.4 9581.45 12780.4 9536.45 12669.4 9320.45ZM11592.4 9068.45C11592.4 9058.45 11626.4 8972.45 11672.4 8867.45C11677.4 8856.45 11701.4 8798.45 11726.4 8737.45C11750.4 8677.45 11800.4 8555.45 11837.4 8467.45C11873.4 8379.45 11923.4 8258.45 11948.4 8197.45C12053.4 7944.45 12063.4 7922.45 12106.4 7886.45C12128.4 7867.45 12161.4 7849.45 12181.4 7846.45C12201.4 7842.45 12222.4 7837.45 12229.4 7833.45C12238.4 7828.45 11477.4 7288.45 11441.4 7274.45C11436.4 7272.45 11432.4 7558.45 11432.4 7909.45C11432.4 8504.45 11430.4 8550.45 11413.4 8587.45C11377.4 8667.45 11272.4 8730.45 11192.4 8719.45C11170.4 8716.45 11122.4 8698.45 11084.4 8679.45C10869.4 8568.45 10637.4 8450.45 10417.4 8337.45C10280.4 8267.45 10113.4 8181.45 10047.4 8147.45C9981.45 8113.45 9855.45 8048.45 9766.45 8003.45C9677.45 7959.45 9594.45 7912.45 9580.45 7899.45L9555.45 7876.45L9396.45 7969.45C9309.45 8020.45 9228.45 8067.45 9217.45 8073.45C9206.45 8078.45 9180.45 8093.45 9160.45 8105.45L9122.45 8128.45L9200.45 8159.45C9242.45 8177.45 9331.45 8212.45 9397.45 8237.45C9535.45 8291.45 9582.45 8309.45 9782.45 8387.45C9862.45 8418.45 9956.45 8455.45 9992.45 8468.45C10028.4 8481.45 10066.4 8496.45 10077.4 8501.45C10088.4 8506.45 10151.4 8531.45 10217.4 8557.45C10283.4 8582.45 10353.4 8610.45 10372.4 8617.45C10391.4 8625.45 10448.4 8646.45 10497.4 8666.45C10673.4 8734.45 10877.4 8813.45 10897.4 8821.45C10908.4 8826.45 10935.4 8836.45 10957.4 8845.45C11010.4 8865.45 11102.4 8901.45 11127.4 8911.45C11161.4 8926.45 11223.4 8949.45 11347.4 8997.45C11413.4 9022.45 11492.4 9053.45 11522.4 9066.45C11579.4 9090.45 11592.4 9090.45 11592.4 9068.45ZM11034.4 7605.45C11036.4 7276.45 11037.4 7006.45 11037.4 7005.45C11036.4 7002.45 10871.4 7097.45 10747.4 7172.45C10724.4 7186.45 10645.4 7232.45 10571.4 7275.45C10497.4 7318.45 10370.4 7394.45 10287.4 7443.45C10205.4 7492.45 10128.4 7537.45 10117.4 7543.45C10106.4 7548.45 10079.4 7564.45 10057.4 7577.45C10035.4 7590.45 10000.4 7611.45 9979.45 7622.45C9957.45 7634.45 9942.45 7645.45 9944.45 7646.45C9947.45 7649.45 10145.4 7752.45 10482.4 7924.45C10584.4 7977.45 10746.4 8060.45 10842.4 8110.45C10938.4 8160.45 11020.4 8201.45 11024.4 8201.45C11028.4 8202.45 11033.4 7933.45 11034.4 7605.45ZM12406.4 7202.45C12409.4 7067.45 12414.4 6840.45 12417.4 6697.45C12420.4 6554.45 12425.4 6379.45 12427.4 6309.45L12432.4 6180.45L12395.4 6202.45C12374.4 6215.45 12341.4 6234.45 12322.4 6245.45C12303.4 6256.45 12275.4 6272.45 12260.4 6281.45C12246.4 6290.45 12187.4 6324.45 12131.4 6357.45C12075.4 6390.45 12012.4 6427.45 11993.4 6438.45C11951.4 6463.45 11723.4 6598.45 11544.4 6702.45L11421.4 6774.45L11466.4 6806.45C11491.4 6823.45 11541.4 6857.45 11577.4 6882.45C11613.4 6907.45 11669.4 6945.45 11700.4 6968.45C11731.4 6990.45 11795.4 7035.45 11842.4 7067.45C12016.4 7187.45 12090.4 7239.45 12227.4 7334.45C12353.4 7421.45 12397.4 7451.45 12398.4 7449.45C12399.4 7448.45 12402.4 7337.45 12406.4 7202.45ZM13996.4 6590.45C13999.4 6561.45 14004.4 6510.45 14007.4 6477.45C14010.4 6444.45 14019.4 6350.45 14027.4 6267.45C14035.4 6185.45 14048.4 6045.45 14057.4 5957.45C14065.4 5869.45 14079.4 5730.45 14087.4 5647.45C14095.4 5565.45 14104.4 5466.45 14107.4 5427.45C14110.4 5389.45 14117.4 5319.45 14123.4 5273.45C14128.4 5227.45 14131.4 5188.45 14130.4 5186.45C14128.4 5185.45 14071.4 5217.45 14002.4 5257.45C13933.4 5298.45 13863.4 5339.45 13845.4 5349.45C13801.4 5374.45 13617.4 5482.45 13573.4 5510.45C13553.4 5522.45 13524.4 5539.45 13507.4 5547.45C13491.4 5556.45 13428.4 5592.45 13367.4 5629.45C13307.4 5665.45 13187.4 5735.45 13102.4 5785.45C13017.4 5834.45 12941.4 5880.45 12934.4 5886.45C12924.4 5895.45 12949.4 5917.45 13049.4 5987.45C13119.4 6037.45 13203.4 6096.45 13236.4 6120.45C13320.4 6179.45 13453.4 6272.45 13532.4 6326.45C13551.4 6340.45 13596.4 6371.45 13632.4 6396.45C13668.4 6422.45 13726.4 6463.45 13762.4 6488.45C13798.4 6512.45 13861.4 6557.45 13902.4 6587.45C13943.4 6616.45 13980.4 6641.45 13983.4 6641.45C13987.4 6642.45 13992.4 6618.45 13996.4 6590.45ZM16306.4 5477.45C16305.4 5438.45 16301.4 5198.45 16297.4 4942.45C16293.4 4686.45 16288.4 4437.45 16287.4 4387.45C16285.4 4338.45 16283.4 4217.45 16283.4 4120.45L16282.4 3942.45L16250.4 3962.45C16232.4 3973.45 16207.4 3982.45 16194.4 3982.45C16171.4 3982.45 16131.4 4001.45 16060.4 4044.45C16040.4 4057.45 15977.4 4094.45 15921.4 4127.45C15865.4 4160.45 15802.4 4197.45 15783.4 4208.45C15739.4 4235.45 15505.4 4372.45 15323.4 4479.45C15250.4 4522.45 15175.4 4566.45 15156.4 4577.45C15138.4 4588.45 15062.4 4633.45 14986.4 4677.45C14911.4 4721.45 14833.4 4767.45 14813.4 4779.45C14793.4 4791.45 14746.4 4819.45 14707.4 4841.45L14637.4 4881.45L14667.4 4892.45C14684.4 4898.45 14706.4 4906.45 14717.4 4911.45C14749.4 4925.45 14788.4 4940.45 14932.4 4998.45C15006.4 5028.45 15076.4 5056.45 15087.4 5061.45C15111.4 5071.45 15126.4 5078.45 15302.4 5149.45C15376.4 5179.45 15487.4 5224.45 15547.4 5248.45C15608.4 5272.45 15666.4 5297.45 15677.4 5302.45C15696.4 5311.45 15798.4 5352.45 16107.4 5476.45C16184.4 5507.45 16254.4 5537.45 16262.4 5542.45C16297.4 5564.45 16307.4 5550.45 16306.4 5477.45ZM15809.4 3612.45C15837.4 3594.45 15872.4 3539.45 15872.4 3513.45C15872.4 3485.45 15784.4 3329.45 15736.4 3271.45C15717.4 3248.45 15699.4 3218.45 15696.4 3203.45C15688.4 3171.45 15626.4 3055.45 15611.4 3046.45C15597.4 3037.45 15552.4 2937.45 15552.4 2914.45C15553.4 2898.45 15553.4 2898.45 15566.4 2914.45C15573.4 2924.45 15670.4 3089.45 15781.4 3281.45L15983.4 3630.45L16023.4 3608.45C16044.4 3595.45 16078.4 3567.45 16097.4 3544.45L16132.4 3503.45L16035.4 3390.45C15888.4 3219.45 15429.4 2765.45 15237.4 2602.45C15017.4 2414.45 14962.4 2369.45 14962.4 2375.45C14962.4 2384.45 15222.4 2832.45 15253.4 2878.45C15272.4 2906.45 15288.4 2919.45 15304.4 2919.45C15317.4 2920.45 15332.4 2920.45 15339.4 2921.45C15357.4 2923.45 15399.4 3003.45 15404.4 3047.45C15411.4 3097.45 15465.4 3231.45 15538.4 3376.45C15604.4 3506.45 15615.4 3524.45 15666.4 3575.45C15721.4 3630.45 15762.4 3641.45 15809.4 3612.45Z" sodipodi:nodetypes="ccccccccccccccccccccccccccccccccccccccccccccccccccccccccccccccccccccccccccccccccccccccccccccccccccccccccccccccccccccccccccccccccccccccccccccccccccccccccccccccccccccccccccccccccccccccccccccccccccccccccccccccccccccccccccccccccccccccccccccccccccccccccccccccccccccccccccccccccccccccccccccccccccccccccccccccccccccccccccccccccccccccccccccccccccccccccccccccccccccccccccccccccccccccccccccccccccccccccccccccccccccccccccccccccccccccccccccccccccccccccccccccccccccccccccccccccccccccccccccccccccccccccccccccccccccccccccccccccccccccccccccccccccccccccccccccccccccccccccccccccccccccccccccccccccccccccccccccccccccccccccccccccccccccccccccccccccccccccccccccccccccccccccccccccccccccccccccccccccccccccccccccccccccccccccccccccccccccccccccccccccccccccccccccccccccccccccccccccccccccccccccccccccccccccccccccccccccccccccccccccccccccccccccccccccccccccccccccccccccccccccccccccccccccccccccccccc"/>
  <path id="shape1" transform="translate(11325, 19284.5972190091)" fill="#000000" stroke-opacity="0" stroke="#000000" stroke-width="0" stroke-linecap="square" stroke-linejoin="bevel" d="M236 2739.4C142 2705.4 61 2633.4 21 2546.4C4 2509.4 0 2481.4 0 2400.4C0 2286.4 17 2240.4 86 2162.4C132 2109.4 167 2091.4 445 1975.4C511 1948.4 619 1901.4 707 1862.4L785 1828.4L759 1804.4C684 1734.4 574 1554.4 537 1439.4C502 1333.4 495 1301.4 485 1205.4C463 991.403 523 751.403 643 577.403C663 547.403 688 511.403 697 496.403C727 451.403 845 337.403 919 282.403C1130 125.403 1358 37.4028 1636 6.40278C1725 -3.59722 1930 -1.59722 2000 10.4028C2285 58.4028 2473 134.403 2670 281.403C2745 337.403 2857 444.403 2884 485.403C2893 499.403 2915 530.403 2934 555.403C2972 605.403 3046 756.403 3066 823.403L3078 865.403L3141 865.403C3318 865.403 3470 1008.4 3483 1186.4C3489 1274.4 3471 1343.4 3424 1413.4C3380 1480.4 3317 1528.4 3241 1555.4C3211 1565.4 3176 1580.4 3163 1588.4C3151 1596.4 3129 1606.4 3115 1610.4C3101 1614.4 3062 1630.4 3028 1646.4C2994 1662.4 2961 1675.4 2954 1675.4C2948 1675.4 2928 1683.4 2911 1694.4C2894 1704.4 2864 1718.4 2845 1724.4C2826 1730.4 2788 1746.4 2761 1760.4C2734 1774.4 2706 1785.4 2700 1785.4C2693 1785.4 2661 1798.4 2629 1815.4C2597 1831.4 2562 1845.4 2553 1845.4C2544 1845.4 2534 1849.4 2530 1854.4C2527 1859.4 2499 1873.4 2467 1885.4C2436 1896.4 2394 1914.4 2375 1924.4C2356 1934.4 2329 1946.4 2315 1950.4C2301 1954.4 2262 1970.4 2228 1986.4C2194 2002.4 2159 2015.4 2151 2015.4C2143 2015.4 2134 2019.4 2130 2024.4C2127 2029.4 2099 2043.4 2067 2055.4C2036 2066.4 1992 2084.4 1970 2095.4C1885 2135.4 1792 2175.4 1782 2175.4C1777 2175.4 1749 2186.4 1721 2200.4C1693 2213.4 1632 2240.4 1585 2260.4C1538 2280.4 1474 2307.4 1443 2321.4C1411 2334.4 1359 2356.4 1328 2369.4C1296 2383.4 1232 2410.4 1185 2430.4C1138 2450.4 1074 2477.4 1043 2491.4C1011 2504.4 959 2526.4 928 2539.4C896 2553.4 832 2580.4 785 2600.4C635 2664.4 592 2682.4 515 2716.4C424 2756.4 309 2766.4 236 2739.4Z" sodipodi:nodetypes="cccccccccccccccccccccccccccccccccccccccccccccccccccccc"/>
 </g>
</svg>
